<svg id="Layer_2" xmlns="http://www.w3.org/2000/svg" viewBox="0 0 437.2 514" class="icon lpanel"><g id="Layer_1-2"><path d="M373.2 140.8c-41.3-41.3-96.2-64-154.6-64S105.3 99.5 64 140.8 0 237 0 295.4 22.7 408.7 64 450s96.2 64 154.6 64 113.3-22.7 154.6-64 64-96.2 64-154.6-22.7-113.3-64-154.6zM218.6 472C121.2 472 42 392.8 42 295.4s79.2-176.6 176.6-176.6S395.2 198 395.2 295.4 316 472 218.6 472zM160.5 42h116.2c11.6 0 21-9.4 21-21s-9.4-21-21-21H160.5c-11.6 0-21 9.4-21 21s9.4 21 21 21z"></path><path d="M239.6 286.8v-64c0-11.6-9.4-21-21-21s-21 9.4-21 21v72.7c0 5.6 2.2 10.9 6.2 14.8l51 51c4.1 4.1 9.5 6.2 14.8 6.2s10.7-2.1 14.8-6.2c8.2-8.2 8.2-21.5 0-29.7l-44.8-44.8z"></path></g></svg>