<svg id="Layer_2" xmlns="http://www.w3.org/2000/svg" viewBox="0 0 405.4 512" class="icon lpanel"><g id="Layer_1-2"><path d="M315.4 28.7h-6.7v-8.6c0-11-9-20-20-20s-20 9-20 20v8.6H136.3V20c0-11-9-20-20-20s-20 9-20 20v8.7h-6.4C40.4 28.7 0 69 0 118.7V422c0 49.6 40.4 90 90 90h225.4c49.6 0 90-40.4 90-90V118.7c0-49.6-40.4-90-90-90zm50 393.3c0 27.6-22.4 50-50 50H90c-27.6 0-50-22.4-50-50V118.7c0-27.6 22.4-50 50-50h6.4v8.7c0 11 9 20 20 20s20-9 20-20v-8.7h132.4v8.7c0 11 9 20 20 20s20-9 20-20v-8.7h6.7c27.6 0 50 22.4 50 50V422z"></path><path d="M257.9 225.4l-67.8 67.8-31.3-31.3c-7.8-7.8-20.5-7.8-28.3 0-7.8 7.8-7.8 20.5 0 28.3l45.5 45.5c3.9 3.9 9 5.9 14.1 5.9s10.2-2 14.1-5.9l82-82c7.8-7.8 7.8-20.5 0-28.3-7.8-7.8-20.5-7.8-28.3 0z"></path></g></svg>